<svg
  width="20"
  height="20"
  viewBox="0 0 20 20"
  fill="none"
  xmlns="http://www.w3.org/2000/svg"
>
  <g clip-path="url(#clip0_5754_184415)">
    <ellipse cx="10" cy="9.83333" rx="10" ry="9.83333" fill="#2F3137" />
    <path
      d="M18.6584 4.89262C17.7642 3.38749 16.5513 2.19587 15.0193 1.31751C13.487 0.439094 11.8143 0 9.99984 0C8.18563 0 6.51234 0.439228 4.98043 1.31751C3.44828 2.19583 2.23537 3.38749 1.34115 4.89262C0.447065 6.39771 0 8.04128 0 9.82328C0 11.9639 0.635733 13.8887 1.90752 15.5984C3.17917 17.3082 4.82195 18.4913 6.83573 19.1478C7.07014 19.1906 7.24366 19.1605 7.35649 19.0584C7.46936 18.9562 7.52573 18.8281 7.52573 18.6748C7.52573 18.6492 7.52349 18.4191 7.51916 17.9841C7.51469 17.5492 7.51259 17.1697 7.51259 16.8459L7.21311 16.8968C7.02216 16.9312 6.78127 16.9457 6.49045 16.9416C6.19976 16.9376 5.898 16.9077 5.58556 16.8521C5.27298 16.7969 4.98225 16.669 4.71313 16.4686C4.44416 16.2682 4.25321 16.0059 4.14034 15.6821L4.01013 15.3877C3.92335 15.1918 3.78672 14.9741 3.60005 14.7355C3.41339 14.4966 3.22463 14.3347 3.03369 14.2495L2.94252 14.1854C2.88178 14.1428 2.82541 14.0914 2.77328 14.0317C2.7212 13.9721 2.68221 13.9124 2.65617 13.8527C2.63008 13.7929 2.6517 13.7438 2.72125 13.7053C2.79079 13.6668 2.91648 13.6482 3.09886 13.6482L3.35917 13.6864C3.53279 13.7206 3.74754 13.8227 4.0037 13.9933C4.25973 14.1638 4.4702 14.3855 4.63515 14.6582C4.8349 15.008 5.07556 15.2744 5.35781 15.4578C5.63983 15.6412 5.92417 15.7327 6.21057 15.7327C6.49697 15.7327 6.74433 15.7114 6.95275 15.6689C7.16093 15.6263 7.35626 15.5622 7.53863 15.477C7.61676 14.9054 7.82946 14.4663 8.17656 14.1594C7.68183 14.1083 7.23705 14.0314 6.84197 13.9291C6.44713 13.8267 6.0391 13.6605 5.61817 13.43C5.197 13.1999 4.84762 12.9141 4.56994 12.5732C4.2922 12.232 4.06427 11.7842 3.88645 11.2301C3.70855 10.6757 3.61957 10.0362 3.61957 9.31143C3.61957 8.27944 3.96252 7.40125 4.64828 6.67637C4.32704 5.90051 4.35737 5.03074 4.73936 4.06716C4.9911 3.99033 5.36442 4.04799 5.85914 4.23978C6.35396 4.43166 6.71624 4.59604 6.94636 4.73232C7.17649 4.86856 7.36087 4.98401 7.49978 5.07765C8.30722 4.85602 9.14046 4.74518 9.99975 4.74518C10.859 4.74518 11.6925 4.85602 12.5 5.07765L12.9947 4.77081C13.3331 4.56607 13.7326 4.37844 14.1924 4.20788C14.6525 4.03742 15.0043 3.99046 15.2474 4.0673C15.6379 5.03092 15.6727 5.90064 15.3514 6.6765C16.0371 7.40138 16.3802 8.27979 16.3802 9.31156C16.3802 10.0363 16.2909 10.6779 16.1132 11.2365C15.9354 11.7952 15.7055 12.2426 15.4235 12.5796C15.1411 12.9165 14.7895 13.2001 14.3686 13.4302C13.9475 13.6604 13.5394 13.8266 13.1445 13.9291C12.7495 14.0315 12.3047 14.1084 11.81 14.1596C12.2612 14.5432 12.4869 15.1487 12.4869 15.9758V18.6745C12.4869 18.8278 12.5411 18.9558 12.6498 19.058C12.7583 19.1602 12.9296 19.1902 13.164 19.1474C15.1781 18.491 16.8208 17.3078 18.0924 15.598C19.3639 13.8884 19.9999 11.9635 19.9999 9.82292C19.9994 8.04114 19.5521 6.39771 18.6584 4.89262Z"
      fill="white"
    />
  </g>
  <defs>
    <clipPath id="clip0_5754_184415">
      <rect width="20" height="20" fill="white" />
    </clipPath>
  </defs>
</svg>
