<svg xmlns="http://www.w3.org/2000/svg" width="102" height="38" fill="none">
  <path
    fill="#fff"
    fill-opacity=".95"
    fill-rule="evenodd"
    d="M95.647 10.86c2.425.246 3.698.375 5.18 1.573 1.529 1.327 1.776 4.283-.549 5.802-2.105 1.354-4.741 1.52-7.176 1.583-3.57 0-8.686-.695-8.686-5.198h3.286c.1 1.062.723 1.693 1.803 2.004 1.282.357 2.517.403 3.735.412 2.773 0 5.473-.457 5.3-2.022-.156-1.428-2.051-1.565-2.948-1.638h-.082c-.577-.046-3.25-.21-3.25-.21a33.636 33.636 0 0 1-3.642-.44c-1.62-.302-2.417-.924-2.938-1.382-1.337-1.253-1.547-4.063.585-5.472 1.904-1.235 4.302-1.373 6.508-1.427 3.322.036 8.494.64 8.796 4.822h-3.323c-.293-2.114-4.988-2.187-7.386-1.95 0 0-2.892.12-2.892 1.547 0 0-.21 1.3 2.654 1.565.32.028 4.503.375 4.796.403l.22.018.009.01ZM21.509 4.663h15.505v2.828H24.548v3.22h11.12v2.829h-11.12v3.239h12.466v2.828H21.509V4.664Zm37.014 0h3.039V19.6h-3.039V4.664Zm-5.162 7.165c.815-.54 1.492-1.565 1.492-3.093 0-3.468-3.332-4.044-5.922-4.063l-8.805-.009V19.6h9.72c4.485 0 5.94-1.712 5.94-4.228 0-2.16-1.61-3.304-2.425-3.542ZM43.156 7.492h6.306c1.391 0 2.462.494 2.462 1.748 0 1.253-1.227 1.528-2.05 1.537h-6.718V7.492Zm6.718 9.279h-6.718v-3.359h6.672c1.309 0 2.8.275 2.8 1.702 0 1.428-1.354 1.648-2.764 1.648l.01.009ZM68.17 4.664h-3.213v7.605c0 2.104 1.694 3.212 3.57 3.797.082.43.183.842.302 1.19.54 1.546 1.968 2.526 4.64 2.526 2.673 0 4.101-.98 4.641-2.526.12-.348.22-.76.302-1.19 1.876-.585 3.57-1.693 3.57-3.797V4.664h-3.213v7.23c0 .915-.073 2.69-.357 4.163 0 0-1.766.632-4.952.632-3.185 0-4.933-.632-4.933-.632-.284-1.473-.357-3.248-.357-4.164V4.664Zm-50.047 9.087c0 3.468-3.02 3.651-3.02 3.651V4.673h3.02v9.078ZM.009 10.521v9.078h3.02V6.869s1.813-.247 2.774 1.968L9.6 17.604c.623 1.418 1.639 2.214 3.076 2.214s2.425-1.171 2.425-2.416c0 0-1.812.247-2.773-1.967L8.52 6.668C7.908 5.25 6.892 4.454 5.446 4.454 4 4.454 3.02 5.625 3.02 6.87c0 0-3.02.183-3.02 3.65h.01Z"
    clip-rule="evenodd"
  />
  <path
    fill="#fff"
    fill-opacity=".95"
    d="M95.894 23.34H46.222a6.104 6.104 0 0 0-6.105 6.103v.009a6.104 6.104 0 0 0 6.105 6.104h49.672a6.104 6.104 0 0 0 6.105-6.104v-.01a6.104 6.104 0 0 0-6.105-6.103Z"
  />
  <path
    fill="#31343C"
    fill-rule="evenodd"
    d="M58.432 30.613v-.092h1.226v.092c0 .723.687 1.098 2.041 1.098 1.181 0 1.822-.284 1.822-.805v-.074c0-.448-.302-.64-1.282-.777l-1.555-.22c-1.41-.192-2.133-.769-2.133-1.73v-.1c0-1.18 1.08-1.885 2.993-1.885 2.004 0 3.084.74 3.084 2.113v.092h-1.226v-.091c0-.678-.623-1.016-1.858-1.016-1.117 0-1.74.265-1.74.76v.082c0 .393.303.567 1.172.686l1.566.22c1.528.21 2.233.768 2.233 1.811v.101c0 1.217-1.117 1.94-3.13 1.94-2.115 0-3.213-.76-3.213-2.205Zm-11.176-4.358-2.947 6.26v.182h1.245l.668-1.473h3.423l.668 1.473h1.245v-.183l-2.947-6.26h-1.355Zm.678 1.235 1.199 2.636h-2.399l1.2-2.636Zm5.72-1.235h-1.226v6.451h1.226v-6.451Zm11.432 1.098h2.655v5.344h1.226v-5.344h2.654v-1.098h-6.535v1.098Zm7.258 2.507v-3.605h1.227v3.624c0 1.134.704 1.802 1.93 1.802 1.227 0 1.941-.668 1.941-1.802v-3.624h1.227v3.605c0 1.794-1.263 2.956-3.167 2.956s-3.158-1.18-3.158-2.956Zm10.874-3.605h-3.121v6.451h3.12c2.38 0 3.616-1.08 3.616-3.157v-.128c0-2.077-1.245-3.166-3.615-3.166Zm2.37 3.157v.156c0 1.372-.777 2.031-2.37 2.031h-1.886v-4.246h1.877c1.583 0 2.38.695 2.38 2.059Zm2.508-3.157h1.227v6.451h-1.227v-6.451Zm2.49 3.17v.11c0 2.004 1.473 3.285 3.761 3.285 2.289 0 3.753-1.281 3.753-3.285v-.11c0-2.004-1.464-3.294-3.752-3.294-2.289 0-3.762 1.29-3.762 3.294Zm6.27-.01v.138c0 1.345-.907 2.123-2.508 2.123-1.602 0-2.518-.778-2.518-2.123v-.137c0-1.345.916-2.142 2.517-2.142 1.602 0 2.508.797 2.508 2.142Z"
    clip-rule="evenodd"
  />
</svg>
